<svg width="174px" height="174px" viewBox="0 0 174 174" version="1.1" xmlns="http://www.w3.org/2000/svg" xmlns:xlink="http://www.w3.org/1999/xlink">
    <!-- Generator: Sketch 57.1 (83088) - https://sketch.com -->
    <title>Slice</title>
    <desc>Created with Sketch.</desc>
    <g id="Page-1" stroke="none" stroke-width="1" fill="none" fill-rule="evenodd">
        <circle id="Oval" fill="#000000" cx="86" cy="87" r="42"></circle>
        <rect id="Rectangle" fill="#000000" x="81" y="13" width="11" height="28"></rect>
        <rect id="Rectangle" fill="#000000" x="81" y="133" width="11" height="28"></rect>
        <rect id="Rectangle" fill="#000000" transform="translate(116.500000, 35.038476) rotate(30.000000) translate(-116.500000, -35.038476) " x="111" y="21.0384758" width="11" height="28"></rect>
        <rect id="Rectangle" fill="#000000" transform="translate(56.500000, 138.961524) rotate(30.000000) translate(-56.500000, -138.961524) " x="51" y="124.961524" width="11" height="28"></rect>
        <rect id="Rectangle" fill="#000000" transform="translate(138.461524, 57.000000) rotate(60.000000) translate(-138.461524, -57.000000) " x="132.961524" y="43" width="11" height="28"></rect>
        <rect id="Rectangle" fill="#000000" transform="translate(34.538476, 117.000000) rotate(60.000000) translate(-34.538476, -117.000000) " x="29.0384758" y="103" width="11" height="28"></rect>
        <rect id="Rectangle" fill="#000000" transform="translate(138.461524, 57.000000) rotate(60.000000) translate(-138.461524, -57.000000) " x="132.961524" y="43" width="11" height="28"></rect>
        <rect id="Rectangle" fill="#000000" transform="translate(34.538476, 117.000000) rotate(60.000000) translate(-34.538476, -117.000000) " x="29.0384758" y="103" width="11" height="28"></rect>
        <rect id="Rectangle" fill="#000000" transform="translate(146.500000, 87.000000) rotate(90.000000) translate(-146.500000, -87.000000) " x="141" y="73" width="11" height="28"></rect>
        <rect id="Rectangle" fill="#000000" transform="translate(26.500000, 87.000000) rotate(90.000000) translate(-26.500000, -87.000000) " x="21" y="73" width="11" height="28"></rect>
        <rect id="Rectangle" fill="#000000" transform="translate(138.461524, 117.000000) rotate(120.000000) translate(-138.461524, -117.000000) " x="132.961524" y="103" width="11" height="28"></rect>
        <rect id="Rectangle" fill="#000000" transform="translate(34.538476, 57.000000) rotate(120.000000) translate(-34.538476, -57.000000) " x="29.0384758" y="43" width="11" height="28"></rect>
        <rect id="Rectangle" fill="#000000" transform="translate(116.500000, 138.961524) rotate(150.000000) translate(-116.500000, -138.961524) " x="111" y="124.961524" width="11" height="28"></rect>
        <rect id="Rectangle" fill="#000000" transform="translate(56.500000, 35.038476) rotate(150.000000) translate(-56.500000, -35.038476) " x="51" y="21.0384758" width="11" height="28"></rect>
        <rect id="Rectangle" fill="#000000" transform="translate(116.500000, 138.961524) rotate(150.000000) translate(-116.500000, -138.961524) " x="111" y="124.961524" width="11" height="28"></rect>
        <rect id="Rectangle" fill="#000000" transform="translate(56.500000, 35.038476) rotate(150.000000) translate(-56.500000, -35.038476) " x="51" y="21.0384758" width="11" height="28"></rect>
    </g>
</svg>
